<svg xmlns="http://www.w3.org/2000/svg" xmlns:xlink="http://www.w3.org/1999/xlink" width="512" zoomAndPan="magnify" viewBox="0 0 384 383.999986" height="512" preserveAspectRatio="xMidYMid meet" version="1.0"><defs><g/><clipPath id="84695751b3"><path d="M 52 28 L 330 28 L 330 359 L 52 359 Z M 52 28 " clip-rule="nonzero"/></clipPath><clipPath id="a9ffde107b"><path d="M 87.429688 26.101562 L 331.589844 55.972656 L 294.246094 361.171875 L 50.089844 331.300781 Z M 87.429688 26.101562 " clip-rule="nonzero"/></clipPath><clipPath id="02082036bf"><path d="M 329.402344 73.839844 L 296.46875 343.027344 C 295.886719 347.765625 293.449219 352.078125 289.691406 355.019531 C 285.929688 357.960938 281.15625 359.285156 276.417969 358.707031 L 67.988281 333.207031 C 63.25 332.625 58.9375 330.1875 55.996094 326.425781 C 53.054688 322.667969 51.726562 317.894531 52.308594 313.15625 L 85.242188 43.964844 C 85.824219 39.226562 88.261719 34.914062 92.019531 31.972656 C 95.78125 29.03125 100.554688 27.707031 105.292969 28.285156 L 313.722656 53.785156 C 318.460938 54.367188 322.773438 56.804688 325.714844 60.566406 C 328.65625 64.324219 329.984375 69.101562 329.402344 73.839844 Z M 329.402344 73.839844 " clip-rule="nonzero"/></clipPath><clipPath id="637fe0c8be"><path d="M 0 0 L 278 0 L 278 331 L 0 331 Z M 0 0 " clip-rule="nonzero"/></clipPath><clipPath id="c9ac0514de"><path d="M 35.429688 -1.898438 L 279.589844 27.972656 L 242.246094 333.171875 L -1.910156 303.300781 Z M 35.429688 -1.898438 " clip-rule="nonzero"/></clipPath><clipPath id="9e42b0de88"><path d="M 277.402344 45.839844 L 244.46875 315.027344 C 243.886719 319.765625 241.449219 324.078125 237.691406 327.019531 C 233.929688 329.960938 229.15625 331.285156 224.417969 330.707031 L 15.988281 305.207031 C 11.25 304.625 6.9375 302.1875 3.996094 298.425781 C 1.054688 294.667969 -0.273438 289.894531 0.308594 285.15625 L 33.242188 15.964844 C 33.824219 11.226562 36.261719 6.914062 40.019531 3.972656 C 43.78125 1.03125 48.554688 -0.292969 53.292969 0.285156 L 261.722656 25.785156 C 266.460938 26.367188 270.773438 28.804688 273.714844 32.566406 C 276.65625 36.324219 277.984375 41.101562 277.402344 45.839844 Z M 277.402344 45.839844 " clip-rule="nonzero"/></clipPath><clipPath id="0565a4dfb9"><rect x="0" width="278" y="0" height="331"/></clipPath><clipPath id="3dff0e6370"><path d="M 52 28 L 330 28 L 330 359 L 52 359 Z M 52 28 " clip-rule="nonzero"/></clipPath><clipPath id="ec9f5bf81b"><path d="M 87.429688 26.101562 L 331.609375 55.976562 L 294.265625 361.199219 L 50.085938 331.324219 Z M 87.429688 26.101562 " clip-rule="nonzero"/></clipPath><clipPath id="214ccdb24b"><path d="M 87.4375 26.101562 L 332.195312 56.046875 L 294.816406 361.550781 L 50.058594 331.601562 Z M 87.4375 26.101562 " clip-rule="nonzero"/></clipPath><clipPath id="5ae026a635"><path d="M 329.402344 73.835938 L 296.46875 343.015625 C 295.890625 347.753906 293.449219 352.070312 289.691406 355.011719 C 285.929688 357.949219 281.15625 359.277344 276.417969 358.695312 L 67.996094 333.195312 C 63.257812 332.617188 58.945312 330.179688 56.003906 326.417969 C 53.0625 322.660156 51.738281 317.882812 52.316406 313.144531 L 85.25 43.964844 C 85.832031 39.226562 88.269531 34.914062 92.027344 31.972656 C 95.789062 29.035156 100.5625 27.707031 105.300781 28.285156 L 313.722656 53.785156 C 318.460938 54.367188 322.773438 56.804688 325.714844 60.566406 C 328.65625 64.324219 329.980469 69.101562 329.402344 73.835938 Z M 329.402344 73.835938 " clip-rule="nonzero"/></clipPath><clipPath id="8d61fe9f05"><path d="M 44 27 L 307 27 L 307 347 L 44 347 Z M 44 27 " clip-rule="nonzero"/></clipPath><clipPath id="e0848c3a9b"><path d="M 43.226562 40.902344 L 288.761719 26.101562 L 307.265625 333.019531 L 61.730469 347.820312 Z M 43.226562 40.902344 " clip-rule="nonzero"/></clipPath><clipPath id="f72c41f698"><path d="M 289.84375 44.066406 L 306.164062 314.769531 C 306.453125 319.535156 304.835938 324.21875 301.667969 327.792969 C 298.503906 331.363281 294.046875 333.53125 289.28125 333.820312 L 79.679688 346.457031 C 74.914062 346.746094 70.230469 345.125 66.660156 341.960938 C 63.085938 338.792969 60.917969 334.339844 60.628906 329.574219 L 44.3125 58.871094 C 44.023438 54.105469 45.640625 49.421875 48.808594 45.847656 C 51.972656 42.277344 56.429688 40.105469 61.195312 39.820312 L 270.796875 27.183594 C 275.5625 26.894531 280.246094 28.511719 283.816406 31.679688 C 287.390625 34.847656 289.558594 39.300781 289.84375 44.066406 Z M 289.84375 44.066406 " clip-rule="nonzero"/></clipPath><clipPath id="3db00857a7"><path d="M 0 0 L 262.480469 0 L 262.480469 319.800781 L 0 319.800781 Z M 0 0 " clip-rule="nonzero"/></clipPath><clipPath id="55cff39004"><path d="M -0.773438 13.902344 L 244.761719 -0.898438 L 263.265625 306.019531 L 17.730469 320.820312 Z M -0.773438 13.902344 " clip-rule="nonzero"/></clipPath><clipPath id="2d7b0c62e4"><path d="M 245.84375 17.066406 L 262.164062 287.769531 C 262.453125 292.535156 260.835938 297.21875 257.667969 300.792969 C 254.503906 304.363281 250.046875 306.53125 245.28125 306.820312 L 35.679688 319.457031 C 30.914062 319.746094 26.230469 318.125 22.660156 314.960938 C 19.085938 311.792969 16.917969 307.339844 16.628906 302.574219 L 0.3125 31.871094 C 0.0234375 27.105469 1.640625 22.421875 4.808594 18.847656 C 7.972656 15.277344 12.429688 13.105469 17.195312 12.820312 L 226.796875 0.183594 C 231.5625 -0.105469 236.246094 1.511719 239.816406 4.679688 C 243.390625 7.847656 245.558594 12.300781 245.84375 17.066406 Z M 245.84375 17.066406 " clip-rule="nonzero"/></clipPath><clipPath id="28a0d21d18"><rect x="0" width="263" y="0" height="320"/></clipPath><clipPath id="eda8844c71"><path d="M 44 27 L 307 27 L 307 347 L 44 347 Z M 44 27 " clip-rule="nonzero"/></clipPath><clipPath id="3550270965"><path d="M 43.226562 40.902344 L 288.78125 26.097656 L 307.285156 333.042969 L 61.734375 347.847656 Z M 43.226562 40.902344 " clip-rule="nonzero"/></clipPath><clipPath id="8b0a30e644"><path d="M 43.234375 40.902344 L 289.371094 26.0625 L 307.894531 333.285156 L 61.757812 348.125 Z M 43.234375 40.902344 " clip-rule="nonzero"/></clipPath><clipPath id="00075b86dd"><path d="M 289.84375 44.066406 L 306.164062 314.761719 C 306.453125 319.527344 304.835938 324.210938 301.667969 327.78125 C 298.503906 331.355469 294.046875 333.523438 289.28125 333.808594 L 79.6875 346.445312 C 74.921875 346.734375 70.238281 345.117188 66.667969 341.949219 C 63.09375 338.785156 60.925781 334.328125 60.636719 329.5625 L 44.320312 58.867188 C 44.03125 54.105469 45.648438 49.417969 48.816406 45.847656 C 51.980469 42.273438 56.4375 40.105469 61.199219 39.820312 L 270.796875 27.183594 C 275.5625 26.894531 280.246094 28.511719 283.816406 31.679688 C 287.390625 34.847656 289.558594 39.300781 289.84375 44.066406 Z M 289.84375 44.066406 " clip-rule="nonzero"/></clipPath><clipPath id="fa5dba89e8"><path d="M 66.519531 39.898438 L 312.5 39.898438 L 312.5 347.375 L 66.519531 347.375 Z M 66.519531 39.898438 " clip-rule="nonzero"/></clipPath><clipPath id="e122a5259f"><path d="M 312.5 57.898438 L 312.5 329.09375 C 312.5 333.867188 310.601562 338.445312 307.226562 341.820312 C 303.851562 345.199219 299.273438 347.09375 294.5 347.09375 L 84.515625 347.09375 C 79.742188 347.09375 75.164062 345.199219 71.789062 341.820312 C 68.414062 338.445312 66.519531 333.867188 66.519531 329.09375 L 66.519531 57.898438 C 66.519531 53.125 68.414062 48.546875 71.789062 45.171875 C 75.164062 41.796875 79.742188 39.898438 84.515625 39.898438 L 294.5 39.898438 C 299.273438 39.898438 303.851562 41.796875 307.226562 45.171875 C 310.601562 48.546875 312.5 53.125 312.5 57.898438 Z M 312.5 57.898438 " clip-rule="nonzero"/></clipPath><clipPath id="d28ae02b8c"><path d="M 0.519531 0.898438 L 246.5 0.898438 L 246.5 308.28125 L 0.519531 308.28125 Z M 0.519531 0.898438 " clip-rule="nonzero"/></clipPath><clipPath id="b52bfe2ea7"><path d="M 246.5 18.898438 L 246.5 290.09375 C 246.5 294.867188 244.601562 299.445312 241.226562 302.820312 C 237.851562 306.199219 233.273438 308.09375 228.5 308.09375 L 18.515625 308.09375 C 13.742188 308.09375 9.164062 306.199219 5.789062 302.820312 C 2.414062 299.445312 0.519531 294.867188 0.519531 290.09375 L 0.519531 18.898438 C 0.519531 14.125 2.414062 9.546875 5.789062 6.171875 C 9.164062 2.796875 13.742188 0.898438 18.515625 0.898438 L 228.5 0.898438 C 233.273438 0.898438 237.851562 2.796875 241.226562 6.171875 C 244.601562 9.546875 246.5 14.125 246.5 18.898438 Z M 246.5 18.898438 " clip-rule="nonzero"/></clipPath><clipPath id="5e592db1a1"><rect x="0" width="247" y="0" height="309"/></clipPath><clipPath id="804916aa28"><path d="M 66.527344 39.898438 L 312.519531 39.898438 L 312.519531 347.398438 L 66.527344 347.398438 Z M 66.527344 39.898438 " clip-rule="nonzero"/></clipPath><clipPath id="0f39f25bfe"><path d="M 312.5 57.898438 L 312.5 329.085938 C 312.5 333.859375 310.601562 338.4375 307.226562 341.8125 C 303.851562 345.1875 299.273438 347.082031 294.5 347.082031 L 84.523438 347.082031 C 79.75 347.082031 75.171875 345.1875 71.796875 341.8125 C 68.421875 338.4375 66.527344 333.859375 66.527344 329.085938 L 66.527344 57.898438 C 66.527344 53.125 68.421875 48.546875 71.796875 45.171875 C 75.171875 41.796875 79.75 39.898438 84.523438 39.898438 L 294.5 39.898438 C 299.273438 39.898438 303.851562 41.796875 307.226562 45.171875 C 310.601562 48.546875 312.5 53.125 312.5 57.898438 Z M 312.5 57.898438 " clip-rule="nonzero"/></clipPath></defs><g clip-path="url(#84695751b3)"><g clip-path="url(#a9ffde107b)"><g clip-path="url(#02082036bf)"><g transform="matrix(1, 0, 0, 1, 52, 28)"><g clip-path="url(#0565a4dfb9)"><g clip-path="url(#637fe0c8be)"><g clip-path="url(#c9ac0514de)"><g clip-path="url(#9e42b0de88)"><path fill="#fdfbf2" d="M 35.429688 -1.898438 L 279.589844 27.972656 L 242.246094 333.171875 L -1.910156 303.300781 Z M 35.429688 -1.898438 " fill-opacity="1" fill-rule="nonzero"/></g></g></g></g></g></g></g></g><g clip-path="url(#3dff0e6370)"><g clip-path="url(#ec9f5bf81b)"><g clip-path="url(#214ccdb24b)"><g clip-path="url(#5ae026a635)"><path stroke-linecap="butt" transform="matrix(0.744449, 0.0910824, -0.0910824, 0.744449, 87.436671, 26.101005)" fill="none" stroke-linejoin="miter" d="M 327.962465 23.995353 L 327.962773 385.577906 C 327.964889 391.942467 325.432705 398.050401 320.935659 402.55173 C 316.43281 407.048521 310.33039 409.579184 303.965197 409.576129 L 23.997141 409.576365 C 17.63258 409.57848 11.530448 407.050834 7.028487 402.548617 C 2.527158 398.051571 0.00103334 391.943348 -0.00108194 385.578788 L -0.00139023 23.996234 C 0.00166427 17.631042 2.52931 11.52891 7.026357 7.027581 C 11.529206 2.53079 17.631626 0.00012716 23.996186 -0.00198812 L 303.964242 -0.00222352 C 310.329435 0.000830982 316.431567 2.528477 320.933528 7.030694 C 325.434857 11.52774 327.960982 17.635962 327.962465 23.995353 Z M 327.962465 23.995353 " stroke="#491021" stroke-width="6" stroke-opacity="1" stroke-miterlimit="4"/></g></g></g></g><g clip-path="url(#8d61fe9f05)"><g clip-path="url(#e0848c3a9b)"><g clip-path="url(#f72c41f698)"><g transform="matrix(1, 0, 0, 1, 44, 27)"><g clip-path="url(#28a0d21d18)"><g clip-path="url(#3db00857a7)"><g clip-path="url(#55cff39004)"><g clip-path="url(#2d7b0c62e4)"><path fill="#fdfbf2" d="M -0.773438 13.902344 L 244.761719 -0.898438 L 263.265625 306.019531 L 17.730469 320.820312 Z M -0.773438 13.902344 " fill-opacity="1" fill-rule="nonzero"/></g></g></g></g></g></g></g></g><g clip-path="url(#eda8844c71)"><g clip-path="url(#3550270965)"><g clip-path="url(#8b0a30e644)"><g clip-path="url(#00075b86dd)"><path stroke-linecap="butt" transform="matrix(0.748641, -0.0451342, 0.0451342, 0.748641, 43.23538, 40.902686)" fill="none" stroke-linejoin="miter" d="M 327.961387 23.998136 L 327.96218 385.58061 C 327.964511 391.946455 325.436364 398.050168 320.933585 402.547764 C 316.435691 407.050872 310.329798 409.578633 303.964267 409.575765 L 23.998459 409.576699 C 17.632614 409.57903 11.528901 407.050884 7.031305 402.548104 C 2.528196 398.05021 0.000435825 391.944318 -0.00189572 385.578473 L 0.00251053 23.996312 C -0.000134449 17.635666 2.528326 11.526754 7.031105 7.029158 C 11.528999 2.52605 17.634892 -0.00171094 23.995224 0.000842975 L 303.966231 0.000222929 C 310.332076 -0.00210861 316.435789 2.526038 320.933385 7.028818 C 325.43618 11.531911 327.964254 17.632604 327.961387 23.998136 Z M 327.961387 23.998136 " stroke="#491021" stroke-width="6" stroke-opacity="1" stroke-miterlimit="4"/></g></g></g></g><g clip-path="url(#fa5dba89e8)"><g clip-path="url(#e122a5259f)"><g transform="matrix(1, 0, 0, 1, 66, 39)"><g clip-path="url(#5e592db1a1)"><g clip-path="url(#d28ae02b8c)"><g clip-path="url(#b52bfe2ea7)"><path fill="#fdfbf2" d="M 0.519531 0.898438 L 246.5 0.898438 L 246.5 308.375 L 0.519531 308.375 Z M 0.519531 0.898438 " fill-opacity="1" fill-rule="nonzero"/></g></g></g></g></g></g><g clip-path="url(#804916aa28)"><g clip-path="url(#0f39f25bfe)"><path stroke-linecap="butt" transform="matrix(0.75, 0, 0, 0.75, 66.526212, 39.899997)" fill="none" stroke-linejoin="miter" d="M 327.965056 23.997921 L 327.965056 385.58126 C 327.965056 391.945843 325.433806 398.05001 320.933806 402.55001 C 316.433806 407.05001 310.329639 409.576052 303.965056 409.576052 L 23.996302 409.576052 C 17.631718 409.576052 11.527551 407.05001 7.027551 402.55001 C 2.527551 398.05001 0.00150962 391.945843 0.00150962 385.58126 L 0.00150962 23.997921 C 0.00150962 17.633338 2.527551 11.529171 7.027551 7.029171 C 11.527551 2.529171 17.631718 -0.00207912 23.996302 -0.00207912 L 303.965056 -0.00207912 C 310.329639 -0.00207912 316.433806 2.529171 320.933806 7.029171 C 325.433806 11.529171 327.965056 17.633338 327.965056 23.997921 Z M 327.965056 23.997921 " stroke="#491021" stroke-width="6" stroke-opacity="1" stroke-miterlimit="4"/></g></g><g fill="#491021" fill-opacity="1"><g transform="translate(101.684492, 237.590621)"><g><path d="M 102.269531 -30.90625 C 102.269531 -33.875 103.441406 -36.386719 105.78125 -38.4375 C 108.035156 -40.40625 111.605469 -41.390625 116.492188 -41.390625 C 121.058594 -41.390625 124.554688 -40.28125 126.980469 -38.0625 C 129.46875 -35.789062 130.710938 -32.496094 130.710938 -28.1875 L 130.710938 -22.414062 C 130.710938 -14.234375 128.292969 -8.042969 123.457031 -3.839844 C 118.714844 0.277344 111.75 2.335938 102.566406 2.335938 L 41.433594 2.335938 C 32.539062 2.335938 25.796875 0.105469 21.210938 -4.355469 C 16.609375 -8.832031 14.304688 -15.417969 14.304688 -24.113281 L 14.304688 -120.90625 C 14.304688 -129.820312 16.632812 -136.574219 21.285156 -141.164062 C 25.929688 -145.742188 32.757812 -148.03125 41.773438 -148.03125 L 102.566406 -148.03125 C 111.75 -148.03125 118.714844 -145.972656 123.457031 -141.855469 C 128.292969 -137.65625 130.710938 -131.464844 130.710938 -123.28125 L 130.710938 -118.1875 C 130.710938 -113.480469 129.5 -109.882812 127.078125 -107.390625 C 124.640625 -104.882812 121.109375 -103.628906 116.492188 -103.628906 C 112.0625 -103.628906 108.664062 -104.40625 106.292969 -105.964844 C 103.609375 -107.726562 102.269531 -110.328125 102.269531 -113.773438 C 102.269531 -119.308594 100.800781 -123.398438 97.859375 -126.050781 C 94.851562 -128.761719 90.195312 -130.117188 83.886719 -130.117188 L 60.792969 -130.117188 C 54.582031 -130.117188 49.996094 -128.835938 47.039062 -126.273438 C 44.179688 -123.796875 42.75 -119.96875 42.75 -114.792969 L 42.75 -29.886719 C 42.75 -24.824219 44.152344 -21.082031 46.953125 -18.664062 C 49.851562 -16.15625 54.351562 -14.902344 60.453125 -14.902344 L 84.566406 -14.902344 C 90.640625 -14.902344 95.125 -16.226562 98.019531 -18.875 C 100.851562 -21.46875 102.269531 -25.476562 102.269531 -30.90625 Z M 106.9375 -30.90625 C 106.9375 -24.105469 105.015625 -18.949219 101.171875 -15.429688 C 97.386719 -11.964844 91.851562 -10.230469 84.566406 -10.230469 L 60.453125 -10.230469 C 53.195312 -10.230469 47.675781 -11.863281 43.898438 -15.128906 C 40.019531 -18.480469 38.082031 -23.402344 38.082031 -29.886719 L 38.082031 -114.792969 C 38.082031 -121.390625 40.046875 -126.394531 43.980469 -129.800781 C 47.816406 -133.125 53.417969 -134.789062 60.792969 -134.789062 L 83.886719 -134.789062 C 91.390625 -134.789062 97.089844 -133.03125 100.988281 -129.515625 C 104.957031 -125.941406 106.9375 -120.691406 106.9375 -113.773438 C 106.9375 -112.007812 107.578125 -110.707031 108.859375 -109.867188 C 110.449219 -108.820312 112.992188 -108.296875 116.492188 -108.296875 C 119.796875 -108.296875 122.207031 -109.082031 123.730469 -110.644531 C 125.273438 -112.230469 126.042969 -114.746094 126.042969 -118.1875 L 126.042969 -123.28125 C 126.042969 -130.042969 124.160156 -135.0625 120.394531 -138.332031 C 116.53125 -141.6875 110.589844 -143.363281 102.566406 -143.363281 L 41.773438 -143.363281 C 34.035156 -143.363281 28.296875 -141.519531 24.5625 -137.835938 C 20.839844 -134.164062 18.976562 -128.519531 18.976562 -120.90625 L 18.976562 -24.113281 C 18.976562 -16.734375 20.808594 -11.261719 24.46875 -7.703125 C 28.144531 -4.125 33.800781 -2.335938 41.433594 -2.335938 L 102.566406 -2.335938 C 110.589844 -2.335938 116.53125 -4.011719 120.394531 -7.367188 C 124.160156 -10.636719 126.042969 -15.652344 126.042969 -22.414062 L 126.042969 -28.1875 C 126.042969 -31.125 125.304688 -33.269531 123.832031 -34.617188 C 122.296875 -36.019531 119.847656 -36.722656 116.492188 -36.722656 C 112.773438 -36.722656 110.230469 -36.121094 108.859375 -34.921875 C 107.578125 -33.800781 106.9375 -32.464844 106.9375 -30.90625 Z M 106.9375 -30.90625 "/></g></g></g><g fill="#491021" fill-opacity="1"><g transform="translate(101.684492, 237.590621)"><g><path d="M 104.609375 -30.90625 C 104.609375 -33.164062 105.507812 -35.085938 107.3125 -36.671875 C 109.125 -38.265625 112.179688 -39.0625 116.484375 -39.0625 C 124.410156 -39.0625 128.375 -35.4375 128.375 -28.1875 L 128.375 -22.421875 C 128.375 -7.472656 119.769531 0 102.5625 0 L 41.4375 0 C 24.90625 0 16.640625 -8.035156 16.640625 -24.109375 L 16.640625 -120.90625 C 16.640625 -137.4375 25.019531 -145.703125 41.78125 -145.703125 L 102.5625 -145.703125 C 119.769531 -145.703125 128.375 -138.226562 128.375 -123.28125 L 128.375 -118.1875 C 128.375 -110.039062 124.410156 -105.96875 116.484375 -105.96875 C 108.566406 -105.96875 104.609375 -108.570312 104.609375 -113.78125 C 104.609375 -126.226562 97.703125 -132.453125 83.890625 -132.453125 L 60.796875 -132.453125 C 47.210938 -132.453125 40.421875 -126.566406 40.421875 -114.796875 L 40.421875 -29.890625 C 40.421875 -18.335938 47.097656 -12.5625 60.453125 -12.5625 L 84.5625 -12.5625 C 97.925781 -12.5625 104.609375 -18.675781 104.609375 -30.90625 Z M 104.609375 -30.90625 "/></g></g></g><g fill="#491021" fill-opacity="1"><g transform="translate(134.664617, 291.159332)"><g><path d="M 102.269531 -30.90625 C 102.269531 -33.875 103.441406 -36.386719 105.78125 -38.4375 C 108.035156 -40.40625 111.605469 -41.390625 116.492188 -41.390625 C 121.058594 -41.390625 124.554688 -40.28125 126.980469 -38.0625 C 129.46875 -35.789062 130.710938 -32.496094 130.710938 -28.1875 L 130.710938 -22.414062 C 130.710938 -14.234375 128.292969 -8.042969 123.457031 -3.839844 C 118.714844 0.277344 111.75 2.335938 102.566406 2.335938 L 41.433594 2.335938 C 32.539062 2.335938 25.796875 0.105469 21.210938 -4.355469 C 16.609375 -8.832031 14.304688 -15.417969 14.304688 -24.113281 L 14.304688 -120.90625 C 14.304688 -129.820312 16.632812 -136.574219 21.285156 -141.164062 C 25.929688 -145.742188 32.757812 -148.03125 41.773438 -148.03125 L 102.566406 -148.03125 C 111.75 -148.03125 118.714844 -145.972656 123.457031 -141.855469 C 128.292969 -137.65625 130.710938 -131.464844 130.710938 -123.28125 L 130.710938 -118.1875 C 130.710938 -113.480469 129.5 -109.882812 127.078125 -107.390625 C 124.640625 -104.882812 121.109375 -103.628906 116.492188 -103.628906 C 112.0625 -103.628906 108.664062 -104.40625 106.292969 -105.964844 C 103.609375 -107.726562 102.269531 -110.328125 102.269531 -113.773438 C 102.269531 -119.308594 100.800781 -123.398438 97.859375 -126.050781 C 94.851562 -128.761719 90.195312 -130.117188 83.886719 -130.117188 L 60.792969 -130.117188 C 54.582031 -130.117188 49.996094 -128.835938 47.039062 -126.273438 C 44.179688 -123.796875 42.75 -119.96875 42.75 -114.792969 L 42.75 -29.886719 C 42.75 -24.824219 44.152344 -21.082031 46.953125 -18.664062 C 49.851562 -16.15625 54.351562 -14.902344 60.453125 -14.902344 L 84.566406 -14.902344 C 90.640625 -14.902344 95.125 -16.226562 98.019531 -18.875 C 100.851562 -21.46875 102.269531 -25.476562 102.269531 -30.90625 Z M 106.9375 -30.90625 C 106.9375 -24.105469 105.015625 -18.949219 101.171875 -15.429688 C 97.386719 -11.964844 91.851562 -10.230469 84.566406 -10.230469 L 60.453125 -10.230469 C 53.195312 -10.230469 47.675781 -11.863281 43.898438 -15.128906 C 40.019531 -18.480469 38.082031 -23.402344 38.082031 -29.886719 L 38.082031 -114.792969 C 38.082031 -121.390625 40.046875 -126.394531 43.980469 -129.800781 C 47.816406 -133.125 53.417969 -134.789062 60.792969 -134.789062 L 83.886719 -134.789062 C 91.390625 -134.789062 97.089844 -133.03125 100.988281 -129.515625 C 104.957031 -125.941406 106.9375 -120.691406 106.9375 -113.773438 C 106.9375 -112.007812 107.578125 -110.707031 108.859375 -109.867188 C 110.449219 -108.820312 112.992188 -108.296875 116.492188 -108.296875 C 119.796875 -108.296875 122.207031 -109.082031 123.730469 -110.644531 C 125.273438 -112.230469 126.042969 -114.746094 126.042969 -118.1875 L 126.042969 -123.28125 C 126.042969 -130.042969 124.160156 -135.0625 120.394531 -138.332031 C 116.53125 -141.6875 110.589844 -143.363281 102.566406 -143.363281 L 41.773438 -143.363281 C 34.035156 -143.363281 28.296875 -141.519531 24.5625 -137.835938 C 20.839844 -134.164062 18.976562 -128.519531 18.976562 -120.90625 L 18.976562 -24.113281 C 18.976562 -16.734375 20.808594 -11.261719 24.46875 -7.703125 C 28.144531 -4.125 33.800781 -2.335938 41.433594 -2.335938 L 102.566406 -2.335938 C 110.589844 -2.335938 116.53125 -4.011719 120.394531 -7.367188 C 124.160156 -10.636719 126.042969 -15.652344 126.042969 -22.414062 L 126.042969 -28.1875 C 126.042969 -31.125 125.304688 -33.269531 123.832031 -34.617188 C 122.296875 -36.019531 119.847656 -36.722656 116.492188 -36.722656 C 112.773438 -36.722656 110.230469 -36.121094 108.859375 -34.921875 C 107.578125 -33.800781 106.9375 -32.464844 106.9375 -30.90625 Z M 106.9375 -30.90625 "/></g></g></g><g fill="#491021" fill-opacity="1"><g transform="translate(134.664617, 291.159332)"><g><path d="M 104.609375 -30.90625 C 104.609375 -33.164062 105.507812 -35.085938 107.3125 -36.671875 C 109.125 -38.265625 112.179688 -39.0625 116.484375 -39.0625 C 124.410156 -39.0625 128.375 -35.4375 128.375 -28.1875 L 128.375 -22.421875 C 128.375 -7.472656 119.769531 0 102.5625 0 L 41.4375 0 C 24.90625 0 16.640625 -8.035156 16.640625 -24.109375 L 16.640625 -120.90625 C 16.640625 -137.4375 25.019531 -145.703125 41.78125 -145.703125 L 102.5625 -145.703125 C 119.769531 -145.703125 128.375 -138.226562 128.375 -123.28125 L 128.375 -118.1875 C 128.375 -110.039062 124.410156 -105.96875 116.484375 -105.96875 C 108.566406 -105.96875 104.609375 -108.570312 104.609375 -113.78125 C 104.609375 -126.226562 97.703125 -132.453125 83.890625 -132.453125 L 60.796875 -132.453125 C 47.210938 -132.453125 40.421875 -126.566406 40.421875 -114.796875 L 40.421875 -29.890625 C 40.421875 -18.335938 47.097656 -12.5625 60.453125 -12.5625 L 84.5625 -12.5625 C 97.925781 -12.5625 104.609375 -18.675781 104.609375 -30.90625 Z M 104.609375 -30.90625 "/></g></g></g></svg>